<svg xmlns="http://www.w3.org/2000/svg" width="67.366" height="66.994" viewBox="0 0 67.366 66.994">
  <path id="Icon_metro-earth2" data-name="Icon metro-earth2" d="M35.754,67.922a33,33,0,1,1,33.183-33A33.092,33.092,0,0,1,35.754,67.922ZM62.649,32.16a.206.206,0,0,0,.1-.144,1,1,0,0,0,.319.58c0,.021-.006.016,0,.045.017,0,.029-.012.044-.012a1.006,1.006,0,0,0,.633.235,1.024,1.024,0,0,0,.867-.5.5.5,0,0,1,.044.049c0-.033-.006-.066-.01-.1a1,1,0,0,0,.137-.485A1.036,1.036,0,0,0,63.752,30.8a1.025,1.025,0,0,0-.854.478c-.008-.006,0-.031-.023-.023a.929.929,0,0,0-.16-.493v1.068A1.073,1.073,0,0,1,62.649,32.16ZM15,31.85c0-.311-.713-.841-.9-.841,0-.056-.29-.691-.4-.691,0-.214-.757-1.178-.877-.757-.079.272.579.639.579.955.122,0,.637.969.738,1.138,1.124,1.889-.84.6-.84-.2a2.624,2.624,0,0,1-.647-1.334,4.255,4.255,0,0,1-.548-1.035c0-.6-.334-.891-1-.891-.031-.06-.589-.839-.6-.839a2.183,2.183,0,0,0-.7-1.136,7.951,7.951,0,0,1-.147-1.679,5.658,5.658,0,0,0-.22-1.765A28.564,28.564,0,0,0,6.719,34.925,28.87,28.87,0,0,0,25.791,62.018c.012-1.023.089-2.248.324-2.248,0-.153.131-.792.249-.792a12.427,12.427,0,0,0,0-1.334c-.147-.295.195-.672.3-1.136.574-.287.168-3.162.6-3.162a19.481,19.481,0,0,0,.1-3.607c.11,0-.653-.806-.647-.792-.732,0-1.244-1.167-1.244-1.679a3.1,3.1,0,0,1-.251-.839c.168,0-1.047-1.765-1.047-1.73-.643-.355.035-.85.1-1.431-.558-.184.006-1.681.249-1.681a.466.466,0,0,1,.3-.394c.124.493.7-.245.249-.245,0-.326-.037-1.023,0-1.186,0-.5-.448-1.489-.8-.445-.373-.184-1.315-.151-1.4-.74.058-.291-.537-.885-.747-.988.195-.507-1.01-1.186-1.446-1.186,0-.109-.23-.06-.3-.2-.444,0-.545-.594-1.047-.594-.579,0-1.161-.394-1.694-.394-.178-.353-1.006-.214-1.2-.594-.433,0-.6-.817-.616-1.118-.019-.371-.315-1.654-.834-1.654ZM57.007,15.3a.1.1,0,0,1-.017.045c.031,0,.068.035.1.049C57.063,15.364,57.036,15.333,57.007,15.3Zm.624.683a.663.663,0,0,1,.11.351c.073,0,.108-.037.166-.052C57.818,16.181,57.721,16.086,57.632,15.983Zm1.8,9.4c.033-.891-.747-.742-.993-1.237-.257,0-.35-.2-.7-.2a.428.428,0,0,0-.535.161c-.533.2-.212-.258-.612-.258.019-.509-.185-.65-.749-.594-.324.726-.821,1.161-.747,1.978.239.054.2.107.149.344.317.016,2.242-.1,2.242-.3.066,0,.4.683.4.1.268,0,.409.625,1.047.443,0,.128,1.066-.441.5-.441Zm.1,10.524c.037-.181-.091-.262-.2-.445.284,0-.9-2.18-.9-2.52-.18-.089-.411-.712-.452-.938a2.367,2.367,0,0,1-.6-.988,3.585,3.585,0,0,1-.946-1.235c.357.039.9.111.9-.346-.241,0-.276-.295-.048-.295-.075-.3.162-.522.214-.759a5.564,5.564,0,0,0,.185-1.07,1.651,1.651,0,0,0-.7.148c0,.2-.608-.049-.7-.049-.131-.26-1.078.338-1.344-.2-.429-.386-.313-.683-.452-1.227-.071-.276-.45-.293-.68-.338-.649-.126-.18.769-.216.973.4,0-.251.491-.251.74-.672-.144-.448-.889-.844-1.087-.118-.2-.025-.346-.3-.346,0-.264.141-.742-.149-.839,0-.128-.564-.179-.647-.346-.357,0-1.186-1.341-1.441-.889-.16.289.135.359.195.594.516-.1.467.846,1.1.74a1.709,1.709,0,0,0,.048.4c.467-.109.413.344.647.344-.17.225-.709-.359-.562.132.085.285.037.528-.334.806,0-.307-.025-1.136-.348-1.136-.22-.437-.873-.332-1.149-.74-.224,0-.311-.693-.7-.74a.781.781,0,0,1-.45.2c-.209.419-1.394.043-1.394.1-.019,0-.664,1.571-.7,1.778-.073.443-.431.452-.539.872-.054.21-1.354.111-1.354.266a1.321,1.321,0,0,1-1.047-1.186,9.254,9.254,0,0,1,.2-1.78c.114.031.137.07.2.2.344-.128,1.147.085,1.147-.3q.5.012.3.4c.311.058.848.136.848-.3-.183,0-.2-.016-.2-.2.6-.617-.448-1.173-.448-1.481-.212-.07-.643-.526-.336-.355.259.142,1.207.437.834-.19a.069.069,0,0,0,.048-.047c.106.074.552.53.552.1.122,0,.6-.3.2-.3.037-.223.029-.408.048-.544.633.338.28-.231.6-.443,0,.41.34-.2.548-.2.247-.365.811-.082.948-.495-.3-.1-.249-.858-.249-1.134.367.06.776-.493.832-.113.021.146.039.551.114.606.545.285.4-.163.4-.443-.183,0-.425-.635-.45-.94-.149.021-.39.082-.45.2-.543,0-.913-.2-1.344-.2a7.669,7.669,0,0,1-.5-.643c-.3-.518.3-.367.4-.392,0-.491,2.055-.4,2.144-1.188-.676,0,.7-1.138.7-1.134.458-.39.7-.726,1.271-.769.241-.016,2.916-.751,2.916-.419.108,0,.465.008.834.021a29.027,29.027,0,0,0-38.969-.448.727.727,0,0,1,.079.272c.272-.019.662-.192.749.151a1.713,1.713,0,0,1-.4-.052c.1.765-.336.3-.7.3a1.006,1.006,0,0,0-.33-.128c-.11.1-.226.2-.336.3.012.033-.006.035.015.072.116,0,.056.179.388.289a7.427,7.427,0,0,0,1.209.266,3.87,3.87,0,0,0,.8-.06c0-.041.684-.344.2-.344.066-.272-.056-.34-.35-.344.025-.289.716-.1,1-.1.216-.361.006-.318.2-.646.228-.4.5-.054.649-.439a.694.694,0,0,1,.5.489c.18.148,1.1,1.493,1.1.542.328.109.492.72.5,1.039.6-.087.647-.53.647-.99.137,0-.05-.221-.05-.3.222-.08.5.21.5-.1.1,0,.1.095.1.2.309.06.508-.035.7.031.131.045.064.72,0,.957-.075.3-.653.305-.653.445-.655.487.774.74,1,1.037a2.771,2.771,0,0,1-.647-.1c-.324,0-1.107.34-1.4.1.4,0,.537-.481.6-.938a.714.714,0,0,0-.913.456c-.174.606-.579-.025-.782.384-.079.025-.8.357-.8.245-.809.113-.6.8-.6,1.532.321.192.975.738.946,1.037.726.128.991.2,1.645.3a.792.792,0,0,0,.4.245c0,.425.388.349.747.349,0-.542.635.452.7.641-.087,0,.149.555.2.742-.1-.035-.131,0-.1.1.315.115.815.082.9-.247-.3,0-.2-.344-.2-.544a.371.371,0,0,1,.05-.691c0,.28,1.027-.175.448-.394a1.106,1.106,0,0,0,.006-1.074c-.147-.173-.332,0-.4-.26.392-.1.1-.839.1-1.186.124-.047.448.078.448,0,.384,0,1.022.483,1.246-.1.641.291.131.567.8.346a2.87,2.87,0,0,0,.848.889c0,.035-.019.247.147.247,0,.159-.1-.091-.1.2.093.01.6.1.6-.1.321,0,.548-.392.548-.691.2-.13.554,1.087.8,1.087.178.276.749.679.749.938.12.122.247.089.247.445.151,0,.45-.592.45-.049a.941.941,0,0,1,.6.542c-.359,0-.019.346-.2.346,0,.342-.769.07-.944.049-.239,1.062-1.678.3-2.549.573A2.957,2.957,0,0,0,27.2,23.3c.556.006.8-.478,1.3-.643.4,0,.483-.243.848-.344,0,.1.1.047.1.148-.709,0-.278.456-.071.788a.854.854,0,0,0,.44.369,1.957,1.957,0,0,0-.168.373s0,0,0,0c-.135.045-.4.142-.45.247-.8.089-.406.035-.353-.157.029.068.317.006.3.008-.048-.239-.12-.206-.05-.344-.436,0-.647.2-1,.2-.058.118-.363.4-.5.4a2.343,2.343,0,0,1-.6,1.037c0-.08-.709.443-.647.443-.158.254-.33.245-.4.641a3.314,3.314,0,0,0-.249.79c-.309.2-.423,1.037-.948,1.037-.321.635-.9.551-.9,1.384a4.333,4.333,0,0,1,.33,1.355c.075.349.191.712-.278.72-.033-.052-.361-.544-.3-.544a3.133,3.133,0,0,0-.4-1.062c-.2-.274-.562.043-.848-.076-.122-.243-.95-.3-1.244-.3.048.184.183.241.2.445a1.136,1.136,0,0,1-.639.175c-.433-.06-.382-.4-.859-.349a1.435,1.435,0,0,0-1.3,1.458,4.341,4.341,0,0,0,0,1.483c0,.419.348.722.348,1.037.338,0,.718.74,1.047.74.037.262-.166.3.4.3,0-.029.307-.192.348-.4-.39-.095,0-.594.249-.691,0,.353.5-.118.5-.148.056-.023.55-.2.55-.2,0-.4.375.039.1.2-.27,0-.249.445-.4.445-.064.318-.191.594-.265.9-.1.382.216.421.116.777a6.27,6.27,0,0,0,1.2,0,.349.349,0,0,0-.05-.2c.579,0,.05,1.087.4,1.087,0,.41.2.73.2.988a.655.655,0,0,1,.348.74c.332.043,1.045.128,1.045-.3.5,0,.539.34.5.691,1,0,.375-.988.794-.988.039-.163.108-.192.205-.085.205.109.361-.2.525-.3a1.354,1.354,0,0,1,.268-.14c.141.085.153.06.216.155a1.5,1.5,0,0,0,.784-.316c.359.043.243.81.915.858a2.4,2.4,0,0,0,1.126-.066c.058-.039.272.134.295.208.224,0,.207.194.3.19a.081.081,0,0,0,.1.047c.029.085.207.109.3.344,0,.214.448.252.448.394.321.161-.11.2.384.353a3.6,3.6,0,0,0,.815.241c.093-.353.4.047.55.047.079.161.12.039.2.2.462.384.158.235.348.643.222.144.292.648.353.938-.178,0-.052.679-.052.742-.216,0,.552.406.552-.1.315.052.523.394.747.394-.131.3.348.524.348.052.473.047.346.749.3.988.35,0,.452-.194.751-.231a2.036,2.036,0,0,1,1.093-.353A2.066,2.066,0,0,1,39.9,45.237a2.04,2.04,0,0,1-1.759,2,3.618,3.618,0,0,1-.261.28c0,.1-.023,1.085-.052,1.085,0,.2-.151,1.285-.3,1.285,0,.559-.367.66-.5,1.186-.3.223-1.122.594-1.249.839-.234,0-.409.2-.647.2-.033.068-.541.544-.45.544-.037.351.027,1.176-.164,1.407-.129.153-.313.136-.232.375-.28,0,.017.2-.425.2a.984.984,0,0,0-.788.728,1.1,1.1,0,0,1-.481.953c0,.14-.647.181-.647.544.06,0,0,.672,0,.74a1.181,1.181,0,0,0-.747.344c-.651,0-.572.066-1,.346,0,.087-.06.394-.149.394,0,.5-.359.045-.649.3.114,0,.259.493.2.493,0,.435-.272.472-.548.792-.131.087-.255.445-.348.445,0,.293-.147.559-.147.839.062,0,0,.126.048.243.139-.039.143-.2.2-.2,0-.247.4.146.149.146-.205.309-.427.316-.55.742-.124,0-.232.12-.324.26A28.967,28.967,0,0,0,60.106,50.613a7.872,7.872,0,0,1,.226-1.668c.2.148.355.427.5,0-.359-.07-.272-.194-.149-.493a1.263,1.263,0,0,0,.637.169c.068-.128.122-.264.191-.392-.2-.157.077-.563.174-.365.052-.1.1-.2.145-.3-.023-.006-.017.008-.05,0,0-.179.033-.157.151-.247a.18.18,0,0,0,0,.035,28.588,28.588,0,0,0,2.856-12.423c0-.146-.021-.287-.023-.433-.054.2-.156.421-.3.47,0,.13-1.483.771-1.394,1.037-.261,0-1.178.26-1.346.592a2.321,2.321,0,0,0-1,.4c-.925,0-.749-1.085-1.195-1.085Zm4.216-11.289h-1.1c-.008-.01-.017-.012-.025-.027-.056,0-.29-.524-.2-.643a1.481,1.481,0,0,1,.178.012c-.093-.227-.195-.45-.3-.674a1.435,1.435,0,0,1-.73.365c0,.085-.442.938,0,.938a.149.149,0,0,0,.012.043,1.025,1.025,0,0,0,.087,2.048h.409c.025.188.127.351.489.431.114.476.969.646,1.1.146-.361,0-.243-.344-.212-.577h.29a1.031,1.031,0,1,0,0-2.062ZM60.73,38.023c.073,0,.552-.008.552-.093a5.1,5.1,0,0,0,1.446-.2c0,.639-.541,1-.45,1.631-.359,0-.2.367-.2.493-.232.142-.268.4-.548.544,0,.287-.647.761-.838,1.006-.216.274-.865.751-.95,1.1.023-.082-1.186,1.252-.9,1.252,0,.25-.34,2.223.1,2.223,0,.173.375,1.829.147,1.829,0,.532-.348.858-.348,1.283-.17.115-.413.179-.5.349-.3,0-.452.643-.6.643,0,.687-.2,1.2-.2,1.976.056,0-.4,1.112-.4,1.184-.367.245-1.3,1.126-1.3,1.584,0,0-.647.9-.747,1.037a6.45,6.45,0,0,0-1.7.4c-.319,0-1.145.25-1.344-.049,0-.313-.172-.712-.2-1.138-.153,0-.178-.641-.348-.641a16.981,16.981,0,0,1-.8-2.027,3.3,3.3,0,0,0-.2-.839c0-.681-.5-1.248-.5-1.877-.147,0-.452-1.382-.3-1.382a15.415,15.415,0,0,1,.361-2.007,4.749,4.749,0,0,0-.212-2.048c-.085,0-.371-.472-.4-.592a1.5,1.5,0,0,1-.548-1.283,3.326,3.326,0,0,0,.3-1.78,2.239,2.239,0,0,0-1.249-.148c-.321-.641-2.48-.245-3.092-.245,0,.351-1.5-.068-1.645-.346-.367,0-1.1-.775-1.1-1.136a4.06,4.06,0,0,1-1.045-2.025c-.348-.173-.243-.841-.052-.841a3.507,3.507,0,0,0-.2-1.05c-.06-.208.2-.433.2-.681a2.966,2.966,0,0,1,.4-1.743,6.723,6.723,0,0,0,.392-.736c.207-.518.27-.025.55-.487.268-.132.423-.573.7-.79.12-.159.124-.225,0-.346a2.965,2.965,0,0,0,.348-.936c.39-.538.114-.293.5-.247.141-.153.375-.544.6-.544a.63.63,0,0,1,.55-.3c0,.3.813-.1.9-.1a2.3,2.3,0,0,1,1.246-.594c0-.338,1.767.095,2.045.049v-.148c.377.089,1.066,1.594,1,1.928a3.907,3.907,0,0,1,.749,0c0,.32.606.4.881.412.384.019,1.51-.039,1.51-.561a.464.464,0,0,1,.5.542c.336.037,2.333.076,2.192.493.292,0,.367.5.647.5-.056.342.348,1.235.647,1.235a1.552,1.552,0,0,0,.45,1.035,3.616,3.616,0,0,0,1.045,1.582c-.187.351.284.639.4.988-.027,0,.1.518.247.594,0,.351.742,1.78,1.149,1.78.027.173-.382.252.149.291ZM49.964,26.958c.077-.295.251-.066.413-.012.384.124.251-.006.535-.134C50.912,27.616,50.448,27.006,49.964,26.958Zm-1.049-1.483c.2,0,.259.907-.3.74,0-.225-.143-.641.151-.641.085.351.147.208.147-.1Zm-.247-.592c.23.1.332.066.3-.1.3.1-.039.313-.1.544C48.712,25.177,48.759,25.123,48.668,24.884Zm-5.336-4.4c-.489-.126.5-.27.548-.394a.23.23,0,0,1-.216-.316c.075-.171.2.2.367.12.2-.021.6-.32.394.258s-.4,1.015-1.143,1.025c-.268-.268-.01-.408.05-.693Zm1.846-2.025c.4,0,.05.3-.039.3.068.027-.012.266-.012.344.373,0,.38-.231.647-.3-.056.332-.429.4-.064.681.193.151.39.328.313.557.475,0,.545.454.448.988.263,0,.251.012.251-.25.255.07.236.3,0,.3-.236.464-.857.443-1.3.443,0-.359-.073-.382-.406-.28-.456.138-.1-.361-.091-.608.05,0,1.035.045.448-.148-.031-.532-.151-.691-.647-.691,0-.363-.129-.336-.189-.734-.085-.588.462.041.639-.6Zm-.151,3.211c0,.122-.249.219-.3.047.048.017.066,0,.048-.047Zm-4.088-5.306H38.865a1.031,1.031,0,1,1,0-2.062h2.074a1.031,1.031,0,1,1,0,2.062ZM28.856,34.616c.116,0,.251.045.251.148C28.955,34.764,28.76,34.907,28.856,34.616Zm-1.891.1c-.083.157-.755.13-.848-.052.249,0,.442.1.7,0,0-.136-.114-.245-.2-.394.272,0,.577.206.948.2,0-.229-.1.049,0-.247a1.161,1.161,0,0,1,.548.542A7.439,7.439,0,0,0,26.964,34.717ZM24.77,33.531a1.4,1.4,0,0,1-.9-.445c.247.01.492.111.647-.148.633.064.689.5,1.2.5.1.167.639.551.114.6a1.154,1.154,0,0,1-1.06-.5Zm.4,1.384c-.185,0-.489.08-.348-.3C25.065,34.649,25.181,34.75,25.168,34.915Zm.348-.049-.3.049C25.247,34.686,25.465,34.43,25.517,34.865Zm1.844,2.172c-.039.138-.033.146-.2.146.017-.064.031-.128.048-.2Zm-4.486-4.1c.048.016.1.035.149.049.064.245.2.124.348.049C23.372,33.323,22.7,33.405,22.875,32.937Z" transform="translate(-2.071 -1.428)" fill="none" stroke="#fff" stroke-width="1"/>
</svg>
