<svg xmlns="http://www.w3.org/2000/svg" width="60.096" height="61.362" viewBox="0 0 60.096 61.362">
  <path id="Icon_awesome-hand-holding-usd" data-name="Icon awesome-hand-holding-usd" d="M27.984,17.012,33.416,18.7a.99.99,0,0,1,.663.955.96.96,0,0,1-.913.99H29.6a2.61,2.61,0,0,1-1.119-.259,1.267,1.267,0,0,0-1.532.236l-1.9,2.063a1.491,1.491,0,0,0,.163,2.169,7.555,7.555,0,0,0,3.455,1.356v2.087a1.822,1.822,0,0,0,1.738,1.886h1.738a1.822,1.822,0,0,0,1.738-1.886V26.22a6.538,6.538,0,0,0,5.356-7.427,6.746,6.746,0,0,0-4.66-5.624l-5.432-1.686a.99.99,0,0,1-.663-.955.96.96,0,0,1,.913-.99h3.563a2.61,2.61,0,0,1,1.119.259,1.267,1.267,0,0,0,1.532-.236l1.9-2.063a1.491,1.491,0,0,0-.163-2.169,7.555,7.555,0,0,0-3.455-1.356V1.886A1.822,1.822,0,0,0,32.156,0H30.417a1.822,1.822,0,0,0-1.738,1.886V3.961a6.538,6.538,0,0,0-5.356,7.427A6.746,6.746,0,0,0,27.984,17.012ZM58,38.681a3.075,3.075,0,0,0-4.378,0l-9.473,8.712a6.033,6.033,0,0,1-4.106,1.651H27.908a1.9,1.9,0,0,1,0-3.773h8.028a3.544,3.544,0,0,0,3.411-3.136c.337-2.358-1.249-4.409-3.237-4.409H19.7a11.1,11.1,0,0,0-7.593,3.1L7.333,45.271H1.64A1.782,1.782,0,0,0,0,47.158V58.476a1.782,1.782,0,0,0,1.64,1.886h36.6a6.073,6.073,0,0,0,4.106-1.651L57.858,44.446A4.147,4.147,0,0,0,58,38.681Z" transform="translate(0.5 0.5)" fill="none" stroke="#fff" stroke-width="1"/>
</svg>
