<svg xmlns="http://www.w3.org/2000/svg" width="96.999" height="86.558" viewBox="0 0 96.999 86.558">
  <path id="Icon_awesome-hand-holding-heart" data-name="Icon awesome-hand-holding-heart" d="M44.924,40.879a2.843,2.843,0,0,0,4.161,0l17.77-18.635a13.527,13.527,0,0,0-.914-19.386C60.916-1.5,53.426-.716,48.824,4.114L47,6.023,45.185,4.131C40.583-.716,33.093-1.5,28.067,2.858a13.541,13.541,0,0,0-.914,19.386ZM92.247,53.542a5.4,5.4,0,0,0-6.952,0L70.217,65.6a10.389,10.389,0,0,1-6.527,2.285h-19.3a2.611,2.611,0,1,1,0-5.222H57.163A5.433,5.433,0,0,0,62.6,58.323a5.228,5.228,0,0,0-5.157-6.1H31.331a19.206,19.206,0,0,0-12.092,4.292l-7.588,6.152H2.611A2.619,2.619,0,0,0,0,65.275V80.94a2.619,2.619,0,0,0,2.611,2.611H60.834a10.456,10.456,0,0,0,6.527-2.285L92.035,61.522A5.219,5.219,0,0,0,92.247,53.542Z" transform="translate(1.5 1.507)" fill="none" stroke="#f79741" stroke-width="3"/>
</svg>
