<svg xmlns="http://www.w3.org/2000/svg" width="102.206" height="62.551" viewBox="0 0 102.206 62.551">
  <path id="Icon_awesome-handshake" data-name="Icon awesome-handshake" d="M67.382,4.5H54.067a4.958,4.958,0,0,0-3.348,1.3L35.482,19.753c-.015.016-.031.047-.047.062a6.166,6.166,0,0,0-.326,8.68,6.465,6.465,0,0,0,8.7.419c.015-.015.047-.015.062-.031L56.253,17.536A2.48,2.48,0,1,1,59.6,21.194l-4.046,3.7L78.124,43.221a11.167,11.167,0,0,1,1.225,1.194V14.421L70.886,5.957a4.925,4.925,0,0,0-3.5-1.457Zm16.942,9.952V49.158a4.955,4.955,0,0,0,4.96,4.96h9.921V14.452Zm7.44,34.706a2.48,2.48,0,1,1,2.48-2.48A2.487,2.487,0,0,1,91.765,49.158ZM0,54.1H9.921a4.955,4.955,0,0,0,4.96-4.96V14.452H0ZM7.44,44.2a2.48,2.48,0,1,1-2.48,2.48A2.487,2.487,0,0,1,7.44,44.2Zm67.568,2.883L51.866,28.294l-4.65,4.263A11.158,11.158,0,0,1,32.133,16.11L44.813,4.5H31.823a4.951,4.951,0,0,0-3.5,1.457l-8.479,8.463V49.127h2.837l14.028,12.7a9.919,9.919,0,0,0,13.951-1.442l.031-.031,2.775,2.4a5.761,5.761,0,0,0,8.107-.837l4.867-5.983.837.682a4.953,4.953,0,0,0,6.975-.729l1.473-1.814a4.969,4.969,0,0,0-.713-6.991Z" transform="translate(1.5 -3)" fill="none" stroke="#f79741" stroke-width="3"/>
</svg>
