<svg xmlns="http://www.w3.org/2000/svg" width="113.001" height="86.552" viewBox="0 0 113.001 86.552">
  <path id="Icon_awesome-hand-holding-usd" data-name="Icon awesome-hand-holding-usd" d="M52.089,23.548,62.2,25.882A1.459,1.459,0,0,1,63.433,27.2a1.571,1.571,0,0,1-1.7,1.371H55.1a6.276,6.276,0,0,1-2.083-.359,2.978,2.978,0,0,0-2.851.326L46.629,31.4a1.739,1.739,0,0,0,.3,3,17.138,17.138,0,0,0,6.43,1.877v2.888c0,1.436,1.456,2.611,3.235,2.611h3.235c1.779,0,3.235-1.175,3.235-2.611V36.293c6.127-.587,10.778-5.059,9.969-10.281-.586-3.753-4.186-6.74-8.675-7.784l-10.11-2.334a1.459,1.459,0,0,1-1.233-1.322,1.571,1.571,0,0,1,1.7-1.371H61.35a6.276,6.276,0,0,1,2.083.359,2.978,2.978,0,0,0,2.851-.326l3.539-2.856a1.739,1.739,0,0,0-.3-3A17.138,17.138,0,0,0,63.089,5.5V2.611C63.089,1.175,61.633,0,59.854,0H56.618c-1.779,0-3.235,1.175-3.235,2.611V5.483c-6.127.587-10.778,5.059-9.969,10.281C44,19.517,47.6,22.5,52.089,23.548Zm55.87,29.994a7.186,7.186,0,0,0-8.149,0L82.177,65.6a13.536,13.536,0,0,1-7.643,2.285H51.947a2.643,2.643,0,1,1,0-5.222H66.89c3.053,0,5.864-1.779,6.349-4.341.627-3.264-2.325-6.1-6.026-6.1H36.66a24.838,24.838,0,0,0-14.134,4.292l-8.877,6.152H3.053A2.867,2.867,0,0,0,0,65.275V80.941a2.867,2.867,0,0,0,3.053,2.611H71.177a13.632,13.632,0,0,0,7.643-2.285L107.7,61.522a4.756,4.756,0,0,0,.263-7.98Z" transform="translate(1.5 1.5)" fill="none" stroke="#f79741" stroke-width="3"/>
</svg>
