<svg xmlns="http://www.w3.org/2000/svg" width="79.403" height="61.489" viewBox="0 0 79.403 61.489">
  <path id="Icon_awesome-tshirt" data-name="Icon awesome-tshirt" d="M77.3,11.377,53.459,0C51,3.277,45.548,5.565,39.192,5.565S27.386,3.277,24.925,0L1.081,11.377A1.868,1.868,0,0,0,.2,13.912L7.2,27.41a2.01,2.01,0,0,0,2.633.849l6.932-3.266a1.953,1.953,0,0,1,2.817,1.7v29.9A3.844,3.844,0,0,0,23.5,60.362H39.192c2.168,0,19.582-1.686,19.582-3.773V26.679a1.958,1.958,0,0,1,2.817-1.7l6.932,3.266a1.989,1.989,0,0,0,2.633-.849l7.017-13.487A1.85,1.85,0,0,0,77.3,11.377Z" transform="translate(0.511 0.627)" fill="none" stroke="#fff" stroke-width="1"/>
</svg>
